<svg width="480" height="480" viewBox="0 0 480 480" fill="none" xmlns="http://www.w3.org/2000/svg">
  <rect width="480" height="480" rx="120" fill="#F7E7D6"/>
  <g filter="url(#a)">
    <circle cx="240" cy="240" r="180" fill="#FFF1E2"/>
  </g>
  <g filter="url(#b)">
    <path d="M188 190c-24.5 0-44.5 20-44.5 44.5S163.5 279 188 279c13.4 0 24.5-11.1 24.5-24.5 0-10.9-7-20.1-16.8-23.3 6.3-6 10.3-14.6 10.3-24 0-20.7-16.8-37.5-37.5-37.5Z" fill="#E2C0A1"/>
    <path d="M292 190c24.5 0 44.5 20 44.5 44.5S316.5 279 292 279c-13.4 0-24.5-11.1-24.5-24.5 0-10.9 7-20.1 16.8-23.3-6.3-6-10.3-14.6-10.3-24 0-20.7 16.8-37.5 37.5-37.5Z" fill="#E2C0A1"/>
    <path d="M195 330c0 30.9 21 56 47 56s47-25.1 47-56c0-42.6-26.7-77-59.5-77S195 287.4 195 330Z" fill="#C68D5D"/>
    <path d="M189 324c-9 0-17-5.6-20.1-14l-17.4-45.3c-5.2-13.5 1.8-28.7 15.3-33.9l6.4-2.5c12.3-4.8 26.1 1.3 31 13.6L222 279c5.2 13.5-1.8 28.7-15.3 33.9l-6.4 2.5c-3.6 1.4-7.4 2.1-11.3 2.1Z" fill="#231F20" opacity=".08"/>
    <path d="M291 324c9 0 17-5.6 20.1-14l17.4-45.3c5.2-13.5-1.8-28.7-15.3-33.9l-6.4-2.5c-12.3-4.8-26.1 1.3-31 13.6L258 279c-5.2 13.5 1.8 28.7 15.3 33.9l6.4 2.5c3.6 1.4 7.4 2.1 11.3 2.1Z" fill="#231F20" opacity=".08"/>
    <path d="M240 279c-32.5 0-59 26.8-59 59.8 0 14 5 26.8 13.4 36.7 6.7 7.7 16.6 12.5 27.4 12.5h36.4c10.8 0 20.7-4.8 27.4-12.5 8.4-9.9 13.4-22.7 13.4-36.7 0-33-26.5-59.8-59-59.8Z" fill="#F3D7BF"/>
    <path d="M205.5 307a13.5 13.5 0 1 1-27 0 13.5 13.5 0 0 1 27 0Zm96 0a13.5 13.5 0 1 1-27 0 13.5 13.5 0 0 1 27 0Z" fill="#2F1A10"/>
    <path d="M222 338a18 18 0 0 0 36 0" stroke="#2F1A10" stroke-width="6" stroke-linecap="round"/>
  </g>
  <g filter="url(#c)">
    <path d="M174 159c0-24 19.4-43.5 43.5-43.5 12.9 0 24.5 5.6 32.4 14.5 7.9-8.9 19.5-14.5 32.4-14.5 24 0 43.5 19.5 43.5 43.5 0 11.6-4.6 22.1-12.1 29.9l-55.2 55.8a11 11 0 0 1-15.8 0l-56-55.8A43.5 43.5 0 0 1 174 159Z" fill="#FFB86B"/>
  </g>
  <defs>
    <filter id="a" x="20" y="20" width="440" height="440" color-interpolation-filters="sRGB" filterUnits="userSpaceOnUse">
      <feGaussianBlur stdDeviation="14"/>
    </filter>
    <filter id="b" x="108" y="144" width="264" height="282" color-interpolation-filters="sRGB" filterUnits="userSpaceOnUse">
      <feDropShadow dx="0" dy="18" stdDeviation="24" flood-color="#B76E2D" flood-opacity="0.15"/>
    </filter>
    <filter id="c" x="150" y="99.5" width="180" height="181" color-interpolation-filters="sRGB" filterUnits="userSpaceOnUse">
      <feDropShadow dx="0" dy="16" stdDeviation="18" flood-color="#B76E2D" flood-opacity="0.18"/>
    </filter>
  </defs>
</svg>
