<svg width="240" height="240" viewBox="0 0 240 240" fill="none" xmlns="http://www.w3.org/2000/svg">
  <rect width="240" height="240" rx="24" fill="#E2C0A1"/>
  <!-- Cachorro (Border Collie) -->
  <path d="M120 80C103.5 80 90 93.5 90 110C90 126.5 103.5 140 120 140C136.5 140 150 126.5 150 110C150 93.5 136.5 80 120 80Z" fill="#231F20"/>
  <path d="M120 85C106.2 85 95 96.2 95 110C95 123.8 106.2 135 120 135C133.8 135 145 123.8 145 110C145 96.2 133.8 85 120 85Z" fill="#FFFFFF"/>
  <path d="M120 90C108.95 90 100 98.95 100 110C100 121.05 108.95 130 120 130C131.05 130 140 121.05 140 110C140 98.95 131.05 90 120 90Z" fill="#231F20"/>
  <path d="M110 105C107.24 105 105 107.24 105 110C105 112.76 107.24 115 110 115C112.76 115 115 112.76 115 110C115 107.24 112.76 105 110 105Z" fill="#FFFFFF"/>
  <path d="M130 105C127.24 105 125 107.24 125 110C125 112.76 127.24 115 130 115C132.76 115 135 112.76 135 110C135 107.24 132.76 105 130 105Z" fill="#FFFFFF"/>
  <path d="M120 120C116.69 120 114 122.69 114 126C114 129.31 116.69 132 120 132C123.31 132 126 129.31 126 126C126 122.69 123.31 120 120 120Z" fill="#FFFFFF"/>
  <path d="M105 95L95 85" stroke="#231F20" stroke-width="2" stroke-linecap="round"/>
  <path d="M135 95L145 85" stroke="#231F20" stroke-width="2" stroke-linecap="round"/>
  
  <!-- Gato (Tabby) -->
  <path d="M170 120C161.72 120 155 126.72 155 135C155 143.28 161.72 150 170 150C178.28 150 185 143.28 185 135C185 126.72 178.28 120 170 120Z" fill="#B76E2D"/>
  <path d="M170 125C164.48 125 160 129.48 160 135C160 140.52 164.48 145 170 145C175.52 145 180 140.52 180 135C180 129.48 175.52 125 170 125Z" fill="#E2C0A1"/>
  <path d="M165 132C163.34 132 162 133.34 162 135C162 136.66 163.34 138 165 138C166.66 138 168 136.66 168 135C168 133.34 166.66 132 165 132Z" fill="#231F20"/>
  <path d="M175 132C173.34 132 172 133.34 172 135C172 136.66 173.34 138 175 138C176.66 138 178 136.66 178 135C178 133.34 176.66 132 175 132Z" fill="#231F20"/>
  <path d="M170 140C168.34 140 167 141.34 167 143C167 144.66 168.34 146 170 146C171.66 146 173 144.66 173 143C173 141.34 171.66 140 170 140Z" fill="#231F20"/>
  <path d="M160 125L155 120" stroke="#B76E2D" stroke-width="2" stroke-linecap="round"/>
  <path d="M180 125L185 120" stroke="#B76E2D" stroke-width="2" stroke-linecap="round"/>
  
  <!-- Listras do gato -->
  <path d="M165 125L170 130L175 125" stroke="#B76E2D" stroke-width="1.5" stroke-linecap="round"/>
  <path d="M162 130L170 138L178 130" stroke="#B76E2D" stroke-width="1.5" stroke-linecap="round"/>
  
  <!-- Corpo do gato -->
  <path d="M170 150C170 150 165 155 165 160C165 165 170 170 170 170C170 170 175 165 175 160C175 155 170 150 170 150Z" fill="#B76E2D"/>
  
  <!-- Cauda do gato -->
  <path d="M170 170C170 170 175 175 180 175C185 175 190 170 190 170" stroke="#B76E2D" stroke-width="4" stroke-linecap="round"/>
</svg>