<svg xmlns="http://www.w3.org/2000/svg" viewBox="0 0 410 404" fill="none">
  <g clip-path="url(#clip0_17_39)">
    <path d="M399.641 59.5242L215.643 388.545C211.844 395.262 202.084 395.262 198.284 388.545L10.3571 59.5242C6.07874 52.0472 12.2055 42.9105 20.7159 44.2379L205.114 73.7517C206.715 74.0048 208.335 74.0048 209.936 73.7517L389.283 44.2379C397.793 42.9105 403.92 52.0472 399.641 59.5242Z" fill="url(#paint0_linear_17_39)"/>
    <path d="M292.965 1.5744L156.124 28.2552C154.026 28.6551 152.289 30.1611 151.642 32.1907L109.157 167.166C108.21 170.184 110.966 172.945 113.988 171.999L154.719 159.538C157.84 158.562 160.742 161.584 159.766 164.705L146.978 205.762C145.963 209.01 149.215 212.023 152.418 210.893L181.947 200.689C185.168 199.553 188.407 202.59 187.375 205.829L168.461 264.673C167.27 268.452 172.465 270.976 174.785 267.797L175.887 266.284L286.031 94.6842C288.061 91.5281 285.244 87.5549 281.711 88.2404L239.117 96.5424C235.862 97.175 233.205 93.9978 234.554 90.977L299.587 24.0776C303.052 20.2081 299.422 14.491 294.322 15.4703Z" fill="url(#paint1_linear_17_39)"/>
  </g>
  <defs>
    <linearGradient id="paint0_linear_17_39" x1="6.00017" y1="32.9999" x2="235" y2="344" gradientUnits="userSpaceOnUse">
      <stop stop-color="#41D1FF"/>
      <stop offset="1" stop-color="#BD34FE"/>
    </linearGradient>
    <linearGradient id="paint1_linear_17_39" x1="194.651" y1="8.81818" x2="236.076" y2="292.989" gradientUnits="userSpaceOnUse">
      <stop stop-color="#FFEA83"/>
      <stop offset="0.0833333" stop-color="#FFDD35"/>
      <stop offset="1" stop-color="#FFA800"/>
    </linearGradient>
    <clipPath id="clip0_17_39">
      <rect width="400" height="400" fill="white" transform="translate(5 2)"/>
    </clipPath>
  </defs>
</svg>
